STARTFONT 2.1
COMMENT
COMMENT Converted from OpenType font "xkcd-script.ttf" by "otf2bdf 3.0".
COMMENT
FONT -FreeType-xkcd Script-Medium-R-Normal--14-100-100-100-P-63-ISO10646-1
SIZE 10 100 100
FONTBOUNDINGBOX 10 19 0 -5
STARTPROPERTIES 19
FOUNDRY "FreeType"
FAMILY_NAME "xkcd Script"
WEIGHT_NAME "Medium"
SLANT "R"
SETWIDTH_NAME "Normal"
ADD_STYLE_NAME ""
PIXEL_SIZE 14
POINT_SIZE 100
RESOLUTION_X 100
RESOLUTION_Y 100
SPACING "P"
AVERAGE_WIDTH 63
CHARSET_REGISTRY "ISO10646"
CHARSET_ENCODING "1"
FONT_ASCENT 13
FONT_DESCENT 4
COPYRIGHT "Copyright (c) ipython/xkcd-font contributors, Creative Commons Attribution-NonCommercial 3.0 License"
_OTF_FONTFILE "xkcd-script.ttf"
_OTF_PSNAME "xkcdScript"
ENDPROPERTIES
CHARS 117
STARTCHAR 0020
ENCODING 32
SWIDTH 288 0
DWIDTH 4 0
BBX 0 0 0 0
BITMAP
ENDCHAR
STARTCHAR 0021
ENCODING 33
SWIDTH 216 0
DWIDTH 3 0
BBX 2 10 0 0
BITMAP
40
40
40
40
40
40
40
00
40
C0
ENDCHAR
STARTCHAR 0022
ENCODING 34
SWIDTH 360 0
DWIDTH 5 0
BBX 3 4 1 7
BITMAP
A0
A0
E0
E0
ENDCHAR
STARTCHAR 0023
ENCODING 35
SWIDTH 576 0
DWIDTH 8 0
BBX 7 9 0 -1
BITMAP
14
34
34
FE
28
2A
FC
28
28
ENDCHAR
STARTCHAR 0024
ENCODING 36
SWIDTH 576 0
DWIDTH 8 0
BBX 6 10 1 -1
BITMAP
20
78
F0
B8
FC
54
D4
DC
78
50
ENDCHAR
STARTCHAR 0025
ENCODING 37
SWIDTH 648 0
DWIDTH 9 0
BBX 8 8 0 0
BITMAP
70
D3
A6
6C
1E
37
65
06
ENDCHAR
STARTCHAR 0026
ENCODING 38
SWIDTH 576 0
DWIDTH 8 0
BBX 8 9 0 0
BITMAP
70
58
48
70
70
CE
C6
4F
30
ENDCHAR
STARTCHAR 0027
ENCODING 39
SWIDTH 216 0
DWIDTH 3 0
BBX 1 4 1 7
BITMAP
80
80
80
80
ENDCHAR
STARTCHAR 0028
ENCODING 40
SWIDTH 360 0
DWIDTH 5 0
BBX 4 11 0 -1
BITMAP
20
60
40
C0
80
80
80
C0
40
60
30
ENDCHAR
STARTCHAR 0029
ENCODING 41
SWIDTH 360 0
DWIDTH 5 0
BBX 3 11 1 -2
BITMAP
80
C0
40
60
20
20
20
20
60
40
80
ENDCHAR
STARTCHAR 002A
ENCODING 42
SWIDTH 648 0
DWIDTH 9 0
BBX 7 8 1 0
BITMAP
10
54
7C
FE
7E
7C
54
10
ENDCHAR
STARTCHAR 002B
ENCODING 43
SWIDTH 576 0
DWIDTH 8 0
BBX 7 6 1 1
BITMAP
10
10
FE
10
10
10
ENDCHAR
STARTCHAR 002C
ENCODING 44
SWIDTH 288 0
DWIDTH 4 0
BBX 3 4 0 -3
BITMAP
20
20
60
C0
ENDCHAR
STARTCHAR 002D
ENCODING 45
SWIDTH 576 0
DWIDTH 8 0
BBX 7 1 0 4
BITMAP
FE
ENDCHAR
STARTCHAR 002E
ENCODING 46
SWIDTH 216 0
DWIDTH 3 0
BBX 2 2 0 -1
BITMAP
C0
C0
ENDCHAR
STARTCHAR 002F
ENCODING 47
SWIDTH 504 0
DWIDTH 7 0
BBX 6 10 0 -1
BITMAP
04
08
18
10
10
20
20
60
40
C0
ENDCHAR
STARTCHAR 0030
ENCODING 48
SWIDTH 576 0
DWIDTH 8 0
BBX 7 9 0 0
BITMAP
38
7C
46
C2
C2
C2
C6
4C
38
ENDCHAR
STARTCHAR 0031
ENCODING 49
SWIDTH 216 0
DWIDTH 3 0
BBX 1 9 1 0
BITMAP
80
80
80
80
80
80
80
80
80
ENDCHAR
STARTCHAR 0032
ENCODING 50
SWIDTH 504 0
DWIDTH 7 0
BBX 7 9 0 0
BITMAP
3C
66
06
06
0C
18
30
60
FE
ENDCHAR
STARTCHAR 0033
ENCODING 51
SWIDTH 576 0
DWIDTH 8 0
BBX 7 9 0 -1
BITMAP
7C
0C
18
1C
06
02
02
C6
7C
ENDCHAR
STARTCHAR 0034
ENCODING 52
SWIDTH 504 0
DWIDTH 7 0
BBX 6 9 0 0
BITMAP
C4
C4
84
BC
E4
04
04
04
04
ENDCHAR
STARTCHAR 0035
ENCODING 53
SWIDTH 648 0
DWIDTH 9 0
BBX 8 9 0 0
BITMAP
3F
20
38
3E
02
02
02
C6
7C
ENDCHAR
STARTCHAR 0036
ENCODING 54
SWIDTH 504 0
DWIDTH 7 0
BBX 6 10 0 -1
BITMAP
38
60
40
C0
80
FC
C4
C4
7C
30
ENDCHAR
STARTCHAR 0037
ENCODING 55
SWIDTH 504 0
DWIDTH 7 0
BBX 7 10 0 -1
BITMAP
FE
04
0C
08
18
10
10
10
30
20
ENDCHAR
STARTCHAR 0038
ENCODING 56
SWIDTH 504 0
DWIDTH 7 0
BBX 6 10 0 -1
BITMAP
30
68
C8
78
78
4C
CC
8C
F8
30
ENDCHAR
STARTCHAR 0039
ENCODING 57
SWIDTH 504 0
DWIDTH 7 0
BBX 7 10 0 0
BITMAP
38
6C
C6
CC
7C
08
08
18
18
10
ENDCHAR
STARTCHAR 003A
ENCODING 58
SWIDTH 216 0
DWIDTH 3 0
BBX 2 7 0 1
BITMAP
40
C0
00
00
00
40
C0
ENDCHAR
STARTCHAR 003B
ENCODING 59
SWIDTH 288 0
DWIDTH 4 0
BBX 3 10 0 -3
BITMAP
60
40
00
00
00
00
40
40
C0
80
ENDCHAR
STARTCHAR 003C
ENCODING 60
SWIDTH 432 0
DWIDTH 6 0
BBX 6 9 0 0
BITMAP
0C
18
30
60
C0
60
30
18
0C
ENDCHAR
STARTCHAR 003D
ENCODING 61
SWIDTH 648 0
DWIDTH 9 0
BBX 8 4 0 3
BITMAP
FF
00
00
FF
ENDCHAR
STARTCHAR 003E
ENCODING 62
SWIDTH 432 0
DWIDTH 6 0
BBX 6 9 0 0
BITMAP
C0
60
30
18
0C
18
30
60
40
ENDCHAR
STARTCHAR 003F
ENCODING 63
SWIDTH 504 0
DWIDTH 7 0
BBX 6 9 1 0
BITMAP
78
CC
88
18
70
40
60
20
60
ENDCHAR
STARTCHAR 0040
ENCODING 64
SWIDTH 648 0
DWIDTH 9 0
BBX 8 8 1 1
BITMAP
3C
62
5F
BF
BE
80
C4
7C
ENDCHAR
STARTCHAR 0041
ENCODING 65
SWIDTH 504 0
DWIDTH 7 0
BBX 6 9 0 0
BITMAP
38
28
4C
44
FC
C4
84
84
84
ENDCHAR
STARTCHAR 0042
ENCODING 66
SWIDTH 504 0
DWIDTH 7 0
BBX 5 9 1 0
BITMAP
70
88
98
F0
B0
98
88
88
F8
ENDCHAR
STARTCHAR 0043
ENCODING 67
SWIDTH 576 0
DWIDTH 8 0
BBX 6 10 1 0
BITMAP
10
3C
60
C0
80
80
80
84
CC
78
ENDCHAR
STARTCHAR 0044
ENCODING 68
SWIDTH 576 0
DWIDTH 8 0
BBX 7 9 1 0
BITMAP
F0
9C
84
86
86
84
8C
B8
E0
ENDCHAR
STARTCHAR 0045
ENCODING 69
SWIDTH 576 0
DWIDTH 8 0
BBX 7 9 0 0
BITMAP
3E
60
40
78
40
40
40
5E
F0
ENDCHAR
STARTCHAR 0046
ENCODING 70
SWIDTH 576 0
DWIDTH 8 0
BBX 7 8 0 1
BITMAP
7E
40
40
40
78
40
C0
C0
ENDCHAR
STARTCHAR 0047
ENCODING 71
SWIDTH 576 0
DWIDTH 8 0
BBX 7 9 1 0
BITMAP
78
4C
C0
80
9C
86
84
CC
38
ENDCHAR
STARTCHAR 0048
ENCODING 72
SWIDTH 504 0
DWIDTH 7 0
BBX 5 8 1 0
BITMAP
88
88
88
F8
C8
88
88
88
ENDCHAR
STARTCHAR 0049
ENCODING 73
SWIDTH 216 0
DWIDTH 3 0
BBX 1 9 1 0
BITMAP
80
80
80
80
80
80
80
80
80
ENDCHAR
STARTCHAR 004A
ENCODING 74
SWIDTH 648 0
DWIDTH 9 0
BBX 8 9 1 0
BITMAP
1F
78
08
08
08
08
18
B0
60
ENDCHAR
STARTCHAR 004B
ENCODING 75
SWIDTH 576 0
DWIDTH 8 0
BBX 7 9 0 0
BITMAP
CC
D8
F0
60
70
58
4C
46
02
ENDCHAR
STARTCHAR 004C
ENCODING 76
SWIDTH 576 0
DWIDTH 8 0
BBX 6 8 1 1
BITMAP
80
80
80
80
80
80
9C
F0
ENDCHAR
STARTCHAR 004D
ENCODING 77
SWIDTH 648 0
DWIDTH 9 0
BBX 7 10 1 -1
BITMAP
06
8A
DA
F2
82
82
82
82
82
80
ENDCHAR
STARTCHAR 004E
ENCODING 78
SWIDTH 576 0
DWIDTH 8 0
BBX 6 10 1 0
BITMAP
04
84
C4
C4
E4
B4
9C
8C
8C
80
ENDCHAR
STARTCHAR 004F
ENCODING 79
SWIDTH 576 0
DWIDTH 8 0
BBX 7 9 0 0
BITMAP
38
6C
C6
82
82
86
C4
4C
70
ENDCHAR
STARTCHAR 0050
ENCODING 80
SWIDTH 576 0
DWIDTH 8 0
BBX 6 9 1 1
BITMAP
F8
8C
84
8C
F8
80
80
80
80
ENDCHAR
STARTCHAR 0051
ENCODING 81
SWIDTH 720 0
DWIDTH 10 0
BBX 8 9 1 0
BITMAP
38
6C
C6
82
82
92
9E
CE
79
ENDCHAR
STARTCHAR 0052
ENCODING 82
SWIDTH 576 0
DWIDTH 8 0
BBX 6 9 1 0
BITMAP
FC
84
8C
98
E0
E0
90
88
8C
ENDCHAR
STARTCHAR 0053
ENCODING 83
SWIDTH 576 0
DWIDTH 8 0
BBX 7 9 0 0
BITMAP
3C
64
40
FC
66
02
42
64
38
ENDCHAR
STARTCHAR 0054
ENCODING 84
SWIDTH 576 0
DWIDTH 8 0
BBX 6 9 1 0
BITMAP
FC
E0
20
20
20
20
20
20
20
ENDCHAR
STARTCHAR 0055
ENCODING 85
SWIDTH 576 0
DWIDTH 8 0
BBX 6 9 1 0
BITMAP
0C
84
84
84
84
84
8C
88
70
ENDCHAR
STARTCHAR 0056
ENCODING 86
SWIDTH 504 0
DWIDTH 7 0
BBX 6 9 0 0
BITMAP
04
04
CC
4C
48
68
28
38
10
ENDCHAR
STARTCHAR 0057
ENCODING 87
SWIDTH 720 0
DWIDTH 10 0
BBX 8 10 1 0
BITMAP
03
81
81
81
81
81
93
B6
EC
60
ENDCHAR
STARTCHAR 0058
ENCODING 88
SWIDTH 576 0
DWIDTH 8 0
BBX 6 9 1 0
BITMAP
88
D8
50
60
60
50
D8
8C
04
ENDCHAR
STARTCHAR 0059
ENCODING 89
SWIDTH 576 0
DWIDTH 8 0
BBX 7 9 0 0
BITMAP
82
C2
44
2C
38
10
10
10
10
ENDCHAR
STARTCHAR 005A
ENCODING 90
SWIDTH 576 0
DWIDTH 8 0
BBX 8 8 0 1
BITMAP
7F
42
04
18
10
20
40
FF
ENDCHAR
STARTCHAR 005B
ENCODING 91
SWIDTH 432 0
DWIDTH 6 0
BBX 4 11 1 -1
BITMAP
F0
80
80
80
80
80
80
80
80
80
F0
ENDCHAR
STARTCHAR 005C
ENCODING 92
SWIDTH 504 0
DWIDTH 7 0
BBX 6 10 0 -1
BITMAP
C0
40
60
20
30
10
18
08
0C
04
ENDCHAR
STARTCHAR 005D
ENCODING 93
SWIDTH 432 0
DWIDTH 6 0
BBX 5 11 0 -2
BITMAP
F8
08
08
08
08
08
08
08
08
08
78
ENDCHAR
STARTCHAR 005E
ENCODING 94
SWIDTH 504 0
DWIDTH 7 0
BBX 6 4 0 6
BITMAP
30
78
4C
C4
ENDCHAR
STARTCHAR 005F
ENCODING 95
SWIDTH 576 0
DWIDTH 8 0
BBX 8 1 0 -1
BITMAP
FF
ENDCHAR
STARTCHAR 0061
ENCODING 97
SWIDTH 504 0
DWIDTH 7 0
BBX 5 6 1 0
BITMAP
70
58
88
98
B8
E8
ENDCHAR
STARTCHAR 0062
ENCODING 98
SWIDTH 432 0
DWIDTH 6 0
BBX 4 9 1 0
BITMAP
80
80
80
F0
D0
90
90
90
E0
ENDCHAR
STARTCHAR 0063
ENCODING 99
SWIDTH 432 0
DWIDTH 6 0
BBX 5 7 0 0
BITMAP
38
68
40
C0
C0
C0
78
ENDCHAR
STARTCHAR 0064
ENCODING 100
SWIDTH 504 0
DWIDTH 7 0
BBX 6 9 0 1
BITMAP
04
04
04
1C
7C
44
C4
C4
7C
ENDCHAR
STARTCHAR 0065
ENCODING 101
SWIDTH 504 0
DWIDTH 7 0
BBX 6 7 0 0
BITMAP
10
6C
44
FC
80
C0
78
ENDCHAR
STARTCHAR 0066
ENCODING 102
SWIDTH 504 0
DWIDTH 7 0
BBX 6 9 0 0
BITMAP
1C
24
20
F0
20
20
20
20
20
ENDCHAR
STARTCHAR 0067
ENCODING 103
SWIDTH 576 0
DWIDTH 8 0
BBX 8 10 0 -3
BITMAP
1C
32
22
23
26
3F
02
82
C6
7C
ENDCHAR
STARTCHAR 0068
ENCODING 104
SWIDTH 504 0
DWIDTH 7 0
BBX 5 9 1 0
BITMAP
80
80
80
F8
C8
C8
88
88
08
ENDCHAR
STARTCHAR 0069
ENCODING 105
SWIDTH 288 0
DWIDTH 4 0
BBX 3 7 0 1
BITMAP
40
E0
00
40
40
40
40
ENDCHAR
STARTCHAR 006A
ENCODING 106
SWIDTH 432 0
DWIDTH 6 0
BBX 5 11 0 -3
BITMAP
18
00
08
08
08
08
08
08
08
98
70
ENDCHAR
STARTCHAR 006B
ENCODING 107
SWIDTH 504 0
DWIDTH 7 0
BBX 6 9 1 -1
BITMAP
80
80
98
E0
C0
E0
B0
98
0C
ENDCHAR
STARTCHAR 006C
ENCODING 108
SWIDTH 216 0
DWIDTH 3 0
BBX 1 9 1 0
BITMAP
80
80
80
80
80
80
80
80
80
ENDCHAR
STARTCHAR 006D
ENCODING 109
SWIDTH 720 0
DWIDTH 10 0
BBX 8 7 1 0
BITMAP
66
FD
99
91
91
81
81
ENDCHAR
STARTCHAR 006E
ENCODING 110
SWIDTH 504 0
DWIDTH 7 0
BBX 5 7 1 0
BITMAP
20
F0
98
88
88
88
88
ENDCHAR
STARTCHAR 006F
ENCODING 111
SWIDTH 504 0
DWIDTH 7 0
BBX 5 7 1 0
BITMAP
30
78
C8
C8
88
C8
70
ENDCHAR
STARTCHAR 0070
ENCODING 112
SWIDTH 504 0
DWIDTH 7 0
BBX 6 10 1 -3
BITMAP
70
88
8C
84
8C
F8
80
80
80
80
ENDCHAR
STARTCHAR 0071
ENCODING 113
SWIDTH 576 0
DWIDTH 8 0
BBX 7 10 0 -5
BITMAP
10
6C
44
84
CC
7C
28
08
04
06
ENDCHAR
STARTCHAR 0072
ENCODING 114
SWIDTH 504 0
DWIDTH 7 0
BBX 6 7 1 0
BITMAP
30
DC
80
80
80
80
80
ENDCHAR
STARTCHAR 0073
ENCODING 115
SWIDTH 432 0
DWIDTH 6 0
BBX 6 7 0 0
BITMAP
30
70
D8
68
0C
D8
70
ENDCHAR
STARTCHAR 0074
ENCODING 116
SWIDTH 432 0
DWIDTH 6 0
BBX 5 9 1 0
BITMAP
20
20
60
F8
40
40
40
40
78
ENDCHAR
STARTCHAR 0075
ENCODING 117
SWIDTH 504 0
DWIDTH 7 0
BBX 6 6 0 1
BITMAP
44
84
84
84
8C
78
ENDCHAR
STARTCHAR 0076
ENCODING 118
SWIDTH 504 0
DWIDTH 7 0
BBX 6 7 0 0
BITMAP
04
CC
48
48
50
70
20
ENDCHAR
STARTCHAR 0077
ENCODING 119
SWIDTH 576 0
DWIDTH 8 0
BBX 6 7 1 0
BITMAP
04
84
84
A4
A4
D8
58
ENDCHAR
STARTCHAR 0078
ENCODING 120
SWIDTH 576 0
DWIDTH 8 0
BBX 8 7 0 1
BITMAP
42
64
3C
18
3C
66
C3
ENDCHAR
STARTCHAR 0079
ENCODING 121
SWIDTH 504 0
DWIDTH 7 0
BBX 6 8 0 -3
BITMAP
44
44
44
4C
74
04
C4
78
ENDCHAR
STARTCHAR 007A
ENCODING 122
SWIDTH 504 0
DWIDTH 7 0
BBX 6 6 0 0
BITMAP
FC
08
10
30
60
FC
ENDCHAR
STARTCHAR 007B
ENCODING 123
SWIDTH 360 0
DWIDTH 5 0
BBX 4 11 0 -1
BITMAP
70
40
40
60
E0
E0
20
60
40
40
70
ENDCHAR
STARTCHAR 007C
ENCODING 124
SWIDTH 216 0
DWIDTH 3 0
BBX 1 9 1 0
BITMAP
80
80
80
80
80
80
80
80
80
ENDCHAR
STARTCHAR 007D
ENCODING 125
SWIDTH 288 0
DWIDTH 4 0
BBX 3 12 0 -2
BITMAP
C0
60
20
20
40
60
60
60
20
20
20
C0
ENDCHAR
STARTCHAR 007E
ENCODING 126
SWIDTH 720 0
DWIDTH 10 0
BBX 9 3 0 4
BITMAP
0080
7D80
C700
ENDCHAR
STARTCHAR 00A6
ENCODING 166
SWIDTH 216 0
DWIDTH 3 0
BBX 1 13 1 -2
BITMAP
80
80
80
80
80
80
80
80
80
80
80
80
80
ENDCHAR
STARTCHAR 00B1
ENCODING 177
SWIDTH 576 0
DWIDTH 8 0
BBX 7 8 0 1
BITMAP
10
10
FE
10
10
00
FE
C0
ENDCHAR
STARTCHAR 00C5
ENCODING 197
SWIDTH 648 0
DWIDTH 9 0
BBX 8 13 1 1
BITMAP
3C
2C
38
30
3C
34
66
7E
7E
C2
C3
C3
82
ENDCHAR
STARTCHAR 00C9
ENCODING 201
SWIDTH 576 0
DWIDTH 8 0
BBX 7 14 1 0
BITMAP
0C
18
30
00
7C
F8
C0
C0
F0
C0
C0
C0
FE
40
ENDCHAR
STARTCHAR 00D2
ENCODING 210
SWIDTH 576 0
DWIDTH 8 0
BBX 7 13 0 -1
BITMAP
20
30
1C
00
3C
7E
62
42
C2
C2
C2
66
7E
ENDCHAR
STARTCHAR 00DC
ENCODING 220
SWIDTH 504 0
DWIDTH 7 0
BBX 7 12 0 0
BITMAP
6C
0C
00
84
86
86
C6
C6
C6
C4
C4
7C
ENDCHAR
STARTCHAR 00F7
ENCODING 247
SWIDTH 576 0
DWIDTH 8 0
BBX 8 6 0 2
BITMAP
18
00
FF
00
00
18
ENDCHAR
STARTCHAR 0112
ENCODING 274
SWIDTH 720 0
DWIDTH 10 0
BBX 8 13 1 -1
BITMAP
7E
00
00
FE
FC
C0
F8
C0
C0
C0
C0
FF
E0
ENDCHAR
STARTCHAR 0150
ENCODING 336
SWIDTH 720 0
DWIDTH 10 0
BBX 8 14 1 0
BITMAP
12
36
6C
00
00
3C
7E
63
C3
C3
C3
C3
42
3C
ENDCHAR
STARTCHAR 03A3
ENCODING 931
SWIDTH 648 0
DWIDTH 9 0
BBX 8 11 0 -1
BITMAP
7F
21
30
18
08
18
30
20
60
EF
7F
ENDCHAR
STARTCHAR 2018
ENCODING 8216
SWIDTH 216 0
DWIDTH 3 0
BBX 2 4 0 8
BITMAP
80
40
40
40
ENDCHAR
STARTCHAR 2019
ENCODING 8217
SWIDTH 216 0
DWIDTH 3 0
BBX 2 3 0 9
BITMAP
40
C0
80
ENDCHAR
STARTCHAR 201C
ENCODING 8220
SWIDTH 360 0
DWIDTH 5 0
BBX 4 4 0 6
BITMAP
70
70
E0
20
ENDCHAR
STARTCHAR 201D
ENCODING 8221
SWIDTH 360 0
DWIDTH 5 0
BBX 5 4 0 7
BITMAP
90
58
68
20
ENDCHAR
STARTCHAR 203D
ENCODING 8253
SWIDTH 576 0
DWIDTH 8 0
BBX 6 13 1 0
BITMAP
30
38
7C
F4
BC
3C
38
30
20
20
00
30
20
ENDCHAR
STARTCHAR 221A
ENCODING 8730
SWIDTH 648 0
DWIDTH 9 0
BBX 8 11 1 -1
BITMAP
1F
10
10
30
30
30
20
A0
A0
E0
60
ENDCHAR
STARTCHAR 222B
ENCODING 8747
SWIDTH 720 0
DWIDTH 10 0
BBX 9 15 0 -3
BITMAP
0700
0680
0400
0400
0400
0400
0C00
0C00
0800
0800
0800
0800
1800
F000
6000
ENDCHAR
STARTCHAR 2248
ENCODING 8776
SWIDTH 792 0
DWIDTH 11 0
BBX 9 5 1 2
BITMAP
7080
8D00
0600
7880
8F00
ENDCHAR
STARTCHAR 2260
ENCODING 8800
SWIDTH 648 0
DWIDTH 9 0
BBX 8 8 0 0
BITMAP
04
0C
FF
18
18
FF
30
20
ENDCHAR
STARTCHAR 2264
ENCODING 8804
SWIDTH 576 0
DWIDTH 8 0
BBX 6 8 1 1
BITMAP
08
18
30
60
DC
E0
00
FC
ENDCHAR
STARTCHAR 2265
ENCODING 8805
SWIDTH 576 0
DWIDTH 8 0
BBX 7 7 0 3
BITMAP
20
10
18
0E
FE
00
FE
ENDCHAR
STARTCHAR 226A
ENCODING 8810
SWIDTH 720 0
DWIDTH 10 0
BBX 9 8 0 2
BITMAP
1980
3B00
6600
CC00
6E00
3700
1980
0880
ENDCHAR
STARTCHAR 226B
ENCODING 8811
SWIDTH 720 0
DWIDTH 10 0
BBX 9 9 0 1
BITMAP
0800
4C00
7600
3B80
0980
1980
3300
6600
CC00
ENDCHAR
ENDFONT
